<svg width="24" height="24" viewBox="0 0 24 24" fill="none" xmlns="http://www.w3.org/2000/svg">
<path fill-rule="evenodd" clip-rule="evenodd" d="M24 6.24223C23.285 6.72086 22.4251 7 21.5 7C19.0147 7 17 4.98528 17 2.5C17 1.57493 17.2791 0.715049 17.7578 0H5C2.23858 0 0 2.23858 0 5V17.7578C0.715049 17.2791 1.57493 17 2.5 17C4.98528 17 7 19.0147 7 21.5C7 22.4251 6.72086 23.285 6.24223 24H19C21.7614 24 24 21.7614 24 19V6.24223ZM13.5 8C13.5 7.17157 12.8284 6.5 12 6.5C11.1716 6.5 10.5 7.17157 10.5 8V10.5H8C7.17157 10.5 6.5 11.1716 6.5 12C6.5 12.8284 7.17157 13.5 8 13.5H10.5V16C10.5 16.8284 11.1716 17.5 12 17.5C12.8284 17.5 13.5 16.8284 13.5 16V13.5H16C16.8284 13.5 17.5 12.8284 17.5 12C17.5 11.1716 16.8284 10.5 16 10.5H13.5V8Z" fill="#8DA1A6"/>
</svg>
